<svg version="1.1" id="Layer_1" xmlns="http://www.w3.org/2000/svg" xmlns:xlink="http://www.w3.org/1999/xlink" x="0px" y="0px"
	 width="100%" viewBox="0 0 133 144" enable-background="new 0 0 133 144" xml:space="preserve">
<path fill="none" opacity="1.000000" stroke="none" 
	d="
M134.000000,103.000000 
	C134.000000,116.988876 134.000000,130.977753 134.000000,144.983307 
	C89.713013,144.983307 45.426018,144.983307 1.069511,144.983307 
	C1.069511,97.084557 1.069511,49.168987 1.069511,1.126709 
	C45.213322,1.126709 89.427124,1.126709 134.000000,1.126709 
	C134.000000,33.686684 134.000000,66.374687 133.716354,99.655396 
	C133.037842,100.131203 132.642975,100.014297 132.177673,99.536247 
	C119.934830,68.844162 107.762413,38.513222 95.103134,6.969141 
	C94.272697,8.530050 94.003006,8.947504 93.817162,9.399447 
	C89.521194,19.846790 85.167244,30.271461 81.028854,40.780987 
	C80.498756,42.127178 80.683968,44.083733 81.238869,45.478649 
	C88.361778,63.384098 95.543907,81.267273 102.953300,99.055168 
	C103.583466,100.568039 105.904701,102.260506 107.509995,102.333298 
	C115.303741,102.686684 123.121254,102.516106 131.310501,102.627884 
	C132.460434,102.816437 133.230225,102.908218 134.000000,103.000000 
M42.626808,8.407292 
	C41.743423,10.167808 40.722885,11.873765 39.997562,13.697156 
	C31.357122,35.418427 22.784515,57.166687 14.139479,78.886116 
	C11.156155,86.381287 8.021155,93.816078 4.580214,102.191803 
	C13.595144,102.191803 21.684534,102.097282 29.769608,102.242676 
	C32.628456,102.294090 34.167694,101.623344 35.152393,98.581947 
	C37.114418,92.521942 39.710197,86.667122 42.044186,80.727539 
	C42.597652,80.661964 43.151115,80.596397 43.704578,80.530823 
	C51.862301,100.755302 60.020020,120.979790 68.354340,141.642075 
	C69.436028,140.627090 69.928856,140.374985 70.085320,139.987152 
	C74.295349,129.551895 78.522133,119.122467 82.570091,108.624199 
	C82.959541,107.614166 82.397446,106.085175 81.945885,104.926132 
	C76.595795,91.194000 71.258827,77.455841 65.767464,63.779881 
	C58.359669,45.331161 50.820320,26.935266 42.626808,8.407292 
z"/>
<path fill="#415D58" opacity="1.000000" stroke="none" 
	d="
M134.000000,102.625000 
	C133.230225,102.908218 132.460434,102.816437 131.337723,102.318390 
	C131.405884,101.240540 131.826996,100.568962 132.248108,99.897385 
	C132.642975,100.014297 133.037842,100.131203 133.716354,100.124054 
	C134.000000,100.750000 134.000000,101.500000 134.000000,102.625000 
z"/>
<path fill="#FCFCFC" opacity="1.000000" stroke="none" 
	d="
M42.982117,8.461997 
	C50.820320,26.935266 58.359669,45.331161 65.767464,63.779881 
	C71.258827,77.455841 76.595795,91.194000 81.945885,104.926132 
	C82.397446,106.085175 82.959541,107.614166 82.570091,108.624199 
	C78.522133,119.122467 74.295349,129.551895 70.085320,139.987152 
	C69.928856,140.374985 69.436028,140.627090 68.354340,141.642075 
	C60.020020,120.979790 51.862301,100.755302 43.704578,80.530823 
	C43.151115,80.596397 42.597652,80.661964 42.044186,80.727539 
	C39.710197,86.667122 37.114418,92.521942 35.152393,98.581947 
	C34.167694,101.623344 32.628456,102.294090 29.769608,102.242676 
	C21.684534,102.097282 13.595144,102.191803 4.580214,102.191803 
	C8.021155,93.816078 11.156155,86.381287 14.139479,78.886116 
	C22.784515,57.166687 31.357122,35.418427 39.997562,13.697156 
	C40.722885,11.873765 41.743423,10.167808 42.982117,8.461997 
z"/>
<path fill="#45746C" opacity="1.000000" stroke="none" 
	d="
M132.177673,99.536240 
	C131.826996,100.568962 131.405884,101.240540 130.957565,102.221611 
	C123.121254,102.516106 115.303741,102.686684 107.509995,102.333298 
	C105.904701,102.260506 103.583466,100.568039 102.953300,99.055168 
	C95.543907,81.267273 88.361778,63.384098 81.238869,45.478649 
	C80.683968,44.083733 80.498756,42.127178 81.028854,40.780987 
	C85.167244,30.271461 89.521194,19.846790 93.817162,9.399447 
	C94.003006,8.947504 94.272697,8.530050 95.103134,6.969141 
	C107.762413,38.513222 119.934830,68.844162 132.177673,99.536240 
z"/>
</svg>