<svg version="1.1" id="Layer_1" xmlns="http://www.w3.org/2000/svg" xmlns:xlink="http://www.w3.org/1999/xlink" x="0px" y="0px"
	 width="100%" viewBox="0 0 962 1281" enable-background="new 0 0 962 1281" xml:space="preserve">
<path fill="#A8A8A8" opacity="1.000000" stroke="none" 
	d="
M962.758118,109.706558 
	C963.000000,445.687592 963.000000,781.375183 963.000000,1117.531372 
	C961.514404,1119.449707 961.762817,1121.476318 961.659851,1123.187134 
	C961.244568,1130.083252 958.026428,1135.496216 953.398682,1140.310425 
	C935.735779,1158.684692 917.075867,1176.045532 898.301147,1193.239258 
	C869.358582,1219.744751 839.545776,1245.286011 808.829529,1269.730835 
	C800.491272,1276.366699 790.773132,1280.298096 779.949768,1280.973633 
	C778.799316,1281.045288 777.601624,1280.853271 776.273071,1281.761841 
	C554.312439,1282.000000 332.624878,1282.000000 110.468658,1282.000000 
	C108.186707,1280.283936 105.849113,1281.039307 103.780418,1280.832520 
	C83.341705,1278.789307 65.892502,1269.640991 50.035275,1257.428711 
	C28.680117,1240.982544 13.382467,1219.973267 4.954569,1194.149048 
	C2.761549,1187.429321 2.738810,1180.421997 1.241882,1173.293457 
	C1.000000,1043.979126 1.000000,914.958191 1.000000,785.468628 
	C3.044048,781.758911 5.541075,778.993774 8.336462,776.299500 
	C20.070080,764.990356 33.468136,755.410645 43.669041,742.511841 
	C57.322277,725.247681 64.780357,706.061096 64.752632,683.588318 
	C64.525673,499.633820 64.546776,315.678833 64.705864,131.724182 
	C64.729553,104.331604 71.518547,78.626472 87.243469,55.749722 
	C101.304283,35.293926 120.040108,20.608955 142.691284,10.636348 
	C154.399155,5.481741 166.522079,2.346529 179.632690,1.261630 
	C404.354218,1.000000 628.708435,1.000000 853.531372,1.000000 
	C855.668213,2.603767 857.806030,1.920289 859.728516,2.084923 
	C877.169434,3.578493 892.484253,10.846576 906.655701,20.361877 
	C931.753296,37.213463 949.429932,59.993050 959.039429,88.855644 
	C961.272522,95.562912 961.261230,102.579056 962.758118,109.706558 
z"/>
<!-- <path fill="#000000" opacity="1.000000" stroke="none" 
	d="
M179.531342,1.000000 
	C180.964478,3.168319 179.155273,2.807083 178.116013,2.973320 
	C153.651367,6.886591 131.662521,16.239193 112.384178,32.029095 
	C89.129379,51.075912 75.395554,75.492317 69.922379,104.855911 
	C68.173058,114.240997 66.986420,123.643356 66.987358,133.204407 
	C67.005424,318.105377 66.971375,503.006378 67.051994,687.907349 
	C67.059059,704.105652 62.019436,718.637573 53.919025,732.301331 
	C45.040459,747.277527 32.150417,758.539612 19.028397,769.603271 
	C12.963026,774.717224 7.296017,780.303711 1.224192,785.338013 
	C1.000000,525.284729 1.009892,265.569489 0.904421,5.854264 
	C0.902865,2.023240 1.359222,0.857169 5.641885,0.871372 
	C63.448322,1.063091 121.255608,1.000000 179.531342,1.000000 
z"/> -->
<!-- <path fill="#000000" opacity="1.000000" stroke="none" 
	d="
M776.468628,1282.000000 
	C775.043945,1279.887695 776.762878,1280.201416 777.839722,1280.017456 
	C791.674255,1277.654541 803.592346,1271.624146 814.243103,1262.405151 
	C829.739319,1248.992432 845.843262,1236.283691 861.416016,1222.956909 
	C872.191650,1213.735474 882.441040,1203.901978 893.044678,1194.475952 
	C912.365845,1177.300659 930.959656,1159.367310 949.386108,1141.243286 
	C955.446655,1135.282104 959.221558,1128.374634 960.940613,1120.217773 
	C961.191895,1119.025269 961.291870,1117.963745 962.708130,1117.652466 
	C963.000000,1171.433228 962.964233,1224.866577 963.088135,1278.299438 
	C963.095642,1281.531982 962.219788,1282.075439 959.209473,1282.070801 
	C898.452209,1281.976196 837.694763,1282.000000 776.468628,1282.000000 
z"/> -->
<!-- <path fill="#000000" opacity="1.000000" stroke="none" 
	d="
M963.000000,109.531342 
	C961.383911,110.906662 961.201111,109.641914 961.050476,108.616379 
	C957.980896,87.717934 949.878845,68.980072 937.050598,52.224640 
	C926.550354,38.509876 914.084778,27.102125 899.036926,18.462526 
	C885.213379,10.525816 870.649109,4.941909 854.794861,2.864390 
	C854.253723,2.793485 853.800049,2.055359 853.652832,1.314117 
	C889.095947,1.000000 924.192139,1.051539 959.287537,0.913133 
	C962.482239,0.900535 963.085571,1.728290 963.075195,4.773053 
	C962.956970,39.535946 963.000000,74.299385 963.000000,109.531342 
z"/> -->
<!-- <path fill="#000000" opacity="1.000000" stroke="none" 
	d="
M1.000000,1173.468628 
	C2.615290,1172.092041 2.811783,1173.355957 2.948376,1174.381958 
	C6.045729,1197.646851 15.804132,1218.148926 30.697243,1235.836060 
	C43.552299,1251.102783 59.091709,1263.382324 77.928185,1271.148804 
	C88.068314,1275.329834 98.296600,1278.726685 109.175575,1280.134644 
	C109.720070,1280.204956 110.179283,1280.934570 110.339096,1281.678589 
	C74.904030,1282.000000 39.807854,1281.948486 4.712428,1282.086914 
	C1.517709,1282.099487 0.914473,1281.271729 0.924828,1278.226929 
	C1.043049,1243.463989 1.000000,1208.700562 1.000000,1173.468628 
z"/> -->
<!-- <path fill="#292929" opacity="1.000000" stroke="none" 
	d="
M610.089172,740.903687 
	C675.103882,753.639771 737.010010,774.514465 795.024170,805.477600 
	C838.999146,828.947815 863.790405,867.234131 868.923035,916.851379 
	C872.673340,953.106018 875.100708,989.552124 873.840027,1026.094971 
	C873.414978,1038.417480 872.303162,1050.680664 870.953552,1062.938110 
	C870.398560,1067.978149 867.998962,1070.151489 863.268555,1070.979980 
	C846.493652,1073.917969 829.536743,1074.994873 812.583496,1075.886475 
	C737.700684,1079.824707 662.742310,1080.656494 587.775085,1081.362671 
	C531.627808,1081.891479 475.484222,1081.936279 419.339630,1081.505371 
	C349.540619,1080.969727 279.742828,1080.126343 209.977982,1077.777588 
	C176.855957,1076.662476 143.676376,1075.921387 110.740334,1071.921631 
	C90.488876,1069.462280 94.120598,1071.938354 92.092735,1052.956299 
	C87.897659,1013.687805 90.509171,974.458862 93.592155,935.214478 
	C94.900276,918.562927 95.791229,901.973083 101.370789,886.088135 
	C115.516006,845.816895 142.186798,817.134766 180.836258,798.960205 
	C229.329269,776.156982 279.268707,757.666809 331.527985,745.574646 
	C397.258453,730.365479 463.785614,725.495422 531.023315,730.256531 
	C557.442688,732.127258 583.690674,735.548584 610.089172,740.903687 
z"/> -->
<!-- <path fill="#292929" opacity="1.000000" stroke="none" 
	d="
M292.050049,467.065979 
	C294.551300,445.387482 297.955414,424.286499 307.072174,404.765137 
	C336.489136,341.775513 385.533234,303.973175 454.426910,294.112610 
	C512.951050,285.736237 565.425415,300.838409 610.102722,340.356476 
	C644.320557,370.622986 664.204712,408.564423 670.139587,453.882446 
	C675.242310,492.845856 680.331177,531.812988 685.788574,570.727600 
	C693.827454,628.049622 649.534363,679.796631 591.616333,679.952148 
	C518.454590,680.148621 445.291412,680.150208 372.129700,679.946960 
	C321.936310,679.807556 279.871613,639.489197 277.311096,589.428467 
	C276.582916,575.191162 279.709564,561.255371 281.484375,547.232605 
	C284.850128,520.640137 288.483063,494.081512 292.050049,467.065979 
z"/> -->
</svg>