<svg data-v-70b83f88="" version="1.0" xmlns="http://www.w3.org/2000/svg" xmlns:xlink="http://www.w3.org/1999/xlink" width="100%" height="100%" viewBox="0 0 340.000000 250.000000" preserveAspectRatio="xMidYMid meet" color-interpolation-filters="sRGB" style="margin: auto;"> <rect data-v-70b83f88="" x="0" y="0" width="100%" height="100%" fill="#ffffff" fill-opacity="1" class="background"></rect> <rect data-v-70b83f88="" x="0" y="0" width="100%" height="100%" fill="url(#watermark)" fill-opacity="1" class="watermarklayer"></rect> <g data-v-70b83f88="" fill="#1684ac" class="basesvg" transform="translate(62.84960174560547,92.82883834838867)"><g fill-rule="" class="tp-name" transform="translate(0,0)"><g transform="scale(1.2600000000000002)"><g><g transform="translate(0, 6)" fill-opacity="0"><path d="M0-28.99L5.8-28.99 5.8 0 0 0 0-28.99ZM36.7-23.19L29.01-23.19 29.01 0 23.21 0 23.21-23.19 15.46-23.19 15.46 0 9.66 0 9.66-25.13Q9.66-28.99 13.53-28.99L13.53-28.99 38.66-28.99Q42.52-28.99 42.52-25.13L42.52-25.13 42.52 0 36.72 0 36.7-23.19ZM46.39-25.13L46.39-25.13Q46.39-28.99 50.25-28.99L50.25-28.99 65.71-28.99Q69.58-28.99 69.58-25.13L69.58-25.13 69.58-11.6Q69.58-7.73 65.71-7.73L65.71-7.73 54.12-7.73 56.05-13.53 63.78-13.53 63.78-23.19 52.18-23.19 52.18 0 46.39 0 46.39-25.13ZM73.45-28.99L79.24-28.99 79.24-5.8 90.84-5.8 90.86-28.99 96.66-28.99 96.66-3.87Q96.66 0 92.79 0L92.79 0 77.31 0Q73.45 0 73.45-3.87L73.45-3.87 73.45-28.99ZM119.83-5.8L119.83 0 104.37 0Q100.5 0 100.5-3.87L100.5-3.87 100.5-28.99 106.3-28.99 106.3-5.8 119.83-5.8ZM146.89-29.01L144.98-23.21 129.5-23.21 129.5-17.39 143.03-17.39Q146.89-17.39 146.89-13.55L146.89-13.55 146.89-3.88Q146.89-0.02 143.03-0.02L143.03-0.02 123.7-0.02 123.7-5.8 141.09-5.82 141.09-11.62 127.56-11.62Q123.7-11.62 123.7-15.46L123.7-15.46 123.7-25.13Q123.7-29.01 127.56-29.01L127.56-29.01 146.89-29.01ZM162.35-11.6L156.55-11.6 156.55-5.8 170.08-5.8 170.08 0 154.62 0Q150.76 0 150.76-3.87L150.76-3.87 150.76-25.13Q150.76-28.99 154.62-28.99L154.62-28.99 170.08-28.99 170.08-23.19 156.55-23.19 156.55-17.39 164.29-17.39 162.35-11.6Z" transform="translate(0, 29.010000228881836)"></path></g><g filter="url(#text-effect-sticker-shadow-w5obMNkWzGxp7prJtsjVD)" stroke="#000" stroke-width="6" stroke-linecap="round" stroke-linejoin="round" paint-order="stroke"><path d="M0-28.99L5.8-28.99 5.8 0 0 0 0-28.99ZM36.7-23.19L29.01-23.19 29.01 0 23.21 0 23.21-23.19 15.46-23.19 15.46 0 9.66 0 9.66-25.13Q9.66-28.99 13.53-28.99L13.53-28.99 38.66-28.99Q42.52-28.99 42.52-25.13L42.52-25.13 42.52 0 36.72 0 36.7-23.19ZM46.39-25.13L46.39-25.13Q46.39-28.99 50.25-28.99L50.25-28.99 65.71-28.99Q69.58-28.99 69.58-25.13L69.58-25.13 69.58-11.6Q69.58-7.73 65.71-7.73L65.71-7.73 54.12-7.73 56.05-13.53 63.78-13.53 63.78-23.19 52.18-23.19 52.18 0 46.39 0 46.39-25.13ZM73.45-28.99L79.24-28.99 79.24-5.8 90.84-5.8 90.86-28.99 96.66-28.99 96.66-3.87Q96.66 0 92.79 0L92.79 0 77.31 0Q73.45 0 73.45-3.87L73.45-3.87 73.45-28.99ZM119.83-5.8L119.83 0 104.37 0Q100.5 0 100.5-3.87L100.5-3.87 100.5-28.99 106.3-28.99 106.3-5.8 119.83-5.8ZM146.89-29.01L144.98-23.21 129.5-23.21 129.5-17.39 143.03-17.39Q146.89-17.39 146.89-13.55L146.89-13.55 146.89-3.88Q146.89-0.02 143.03-0.02L143.03-0.02 123.7-0.02 123.7-5.8 141.09-5.82 141.09-11.62 127.56-11.62Q123.7-11.62 123.7-15.46L123.7-15.46 123.7-25.13Q123.7-29.01 127.56-29.01L127.56-29.01 146.89-29.01ZM162.35-11.6L156.55-11.6 156.55-5.8 170.08-5.8 170.08 0 154.62 0Q150.76 0 150.76-3.87L150.76-3.87 150.76-25.13Q150.76-28.99 154.62-28.99L154.62-28.99 170.08-28.99 170.08-23.19 156.55-23.19 156.55-17.39 164.29-17.39 162.35-11.6Z" transform="translate(0, 29.010000228881836)"></path></g><g stroke="#fff" stroke-width="5" stroke-linecap="round" stroke-linejoin="round" paint-order="stroke"><path d="M0-28.99L5.8-28.99 5.8 0 0 0 0-28.99ZM36.7-23.19L29.01-23.19 29.01 0 23.21 0 23.21-23.19 15.46-23.19 15.46 0 9.66 0 9.66-25.13Q9.66-28.99 13.53-28.99L13.53-28.99 38.66-28.99Q42.52-28.99 42.52-25.13L42.52-25.13 42.52 0 36.72 0 36.7-23.19ZM46.39-25.13L46.39-25.13Q46.39-28.99 50.25-28.99L50.25-28.99 65.71-28.99Q69.58-28.99 69.58-25.13L69.58-25.13 69.58-11.6Q69.58-7.73 65.71-7.73L65.71-7.73 54.12-7.73 56.05-13.53 63.78-13.53 63.78-23.19 52.18-23.19 52.18 0 46.39 0 46.39-25.13ZM73.45-28.99L79.24-28.99 79.24-5.8 90.84-5.8 90.86-28.99 96.66-28.99 96.66-3.87Q96.66 0 92.79 0L92.79 0 77.31 0Q73.45 0 73.45-3.87L73.45-3.87 73.45-28.99ZM119.83-5.8L119.83 0 104.37 0Q100.5 0 100.5-3.87L100.5-3.87 100.5-28.99 106.3-28.99 106.3-5.8 119.83-5.8ZM146.89-29.01L144.98-23.21 129.5-23.21 129.5-17.39 143.03-17.39Q146.89-17.39 146.89-13.55L146.89-13.55 146.89-3.88Q146.89-0.02 143.03-0.02L143.03-0.02 123.7-0.02 123.7-5.8 141.09-5.82 141.09-11.62 127.56-11.62Q123.7-11.62 123.7-15.46L123.7-15.46 123.7-25.13Q123.7-29.01 127.56-29.01L127.56-29.01 146.89-29.01ZM162.35-11.6L156.55-11.6 156.55-5.8 170.08-5.8 170.08 0 154.62 0Q150.76 0 150.76-3.87L150.76-3.87 150.76-25.13Q150.76-28.99 154.62-28.99L154.62-28.99 170.08-28.99 170.08-23.19 156.55-23.19 156.55-17.39 164.29-17.39 162.35-11.6Z" transform="translate(0, 29.010000228881836)"></path></g><g stroke="#000" stroke-width="1" stroke-linecap="round" stroke-linejoin="round" paint-order="stroke" data-gra-ignore-stroke="true"><path d="M0-28.99L5.8-28.99 5.8 0 0 0 0-28.99ZM36.7-23.19L29.01-23.19 29.01 0 23.21 0 23.21-23.19 15.46-23.19 15.46 0 9.66 0 9.66-25.13Q9.66-28.99 13.53-28.99L13.53-28.99 38.66-28.99Q42.52-28.99 42.52-25.13L42.52-25.13 42.52 0 36.72 0 36.7-23.19ZM46.39-25.13L46.39-25.13Q46.39-28.99 50.25-28.99L50.25-28.99 65.71-28.99Q69.58-28.99 69.58-25.13L69.58-25.13 69.58-11.6Q69.58-7.73 65.71-7.73L65.71-7.73 54.12-7.73 56.05-13.53 63.78-13.53 63.78-23.19 52.18-23.19 52.18 0 46.39 0 46.39-25.13ZM73.45-28.99L79.24-28.99 79.24-5.8 90.84-5.8 90.86-28.99 96.66-28.99 96.66-3.87Q96.66 0 92.79 0L92.79 0 77.31 0Q73.45 0 73.45-3.87L73.45-3.87 73.45-28.99ZM119.83-5.8L119.83 0 104.37 0Q100.5 0 100.5-3.87L100.5-3.87 100.5-28.99 106.3-28.99 106.3-5.8 119.83-5.8ZM146.89-29.01L144.98-23.21 129.5-23.21 129.5-17.39 143.03-17.39Q146.89-17.39 146.89-13.55L146.89-13.55 146.89-3.88Q146.89-0.02 143.03-0.02L143.03-0.02 123.7-0.02 123.7-5.8 141.09-5.82 141.09-11.62 127.56-11.62Q123.7-11.62 123.7-15.46L123.7-15.46 123.7-25.13Q123.7-29.01 127.56-29.01L127.56-29.01 146.89-29.01ZM162.35-11.6L156.55-11.6 156.55-5.8 170.08-5.8 170.08 0 154.62 0Q150.76 0 150.76-3.87L150.76-3.87 150.76-25.13Q150.76-28.99 154.62-28.99L154.62-28.99 170.08-28.99 170.08-23.19 156.55-23.19 156.55-17.39 164.29-17.39 162.35-11.6Z" transform="translate(0, 29.010000228881836)"></path></g><defs><filter id="text-effect-sticker-shadow-w5obMNkWzGxp7prJtsjVD" filterUnits="objectBoundingBox" width="2" height="2" x="-0.2" y="-0.2"><feDropShadow dx="0" dy="1.5" stdDeviation="0" flood-color="#f5f54b" flood-opacity="1"></feDropShadow><feDropShadow dx="0" dy="0.5" stdDeviation="0" flood-color="#000" flood-opacity="1"></feDropShadow><feDropShadow dx="0" dy="1.5" stdDeviation="0" flood-color="#21578b" flood-opacity="1"></feDropShadow></filter></defs></g></g></g> <g data-gra="path-slogan" fill-rule="" class="tp-slogan" fill="#333333" transform="translate(78.95969772338867,56.11260223388672)"><!----> <!----> <g transform="scale(1, 1)"><g transform="scale(1.06)"><path d="M6.65-5.36L4.68-5.36Q4.72-5.54 4.72-5.85L4.72-5.85Q4.72-6.02 4.69-6.20Q4.67-6.37 4.61-6.51Q4.55-6.64 4.43-6.72Q4.31-6.80 4.12-6.80L4.12-6.80Q3.91-6.80 3.73-6.70Q3.55-6.61 3.42-6.46Q3.28-6.31 3.20-6.11Q3.12-5.92 3.12-5.70L3.12-5.70Q3.12-5.39 3.29-5.23Q3.45-5.06 3.71-4.95Q3.97-4.85 4.30-4.78Q4.63-4.71 4.99-4.61L4.99-4.61Q5.29-4.53 5.58-4.40Q5.88-4.27 6.11-4.05Q6.34-3.83 6.49-3.48Q6.63-3.12 6.63-2.60L6.63-2.60Q6.63-1.85 6.33-1.34Q6.04-0.83 5.51-0.51Q4.99-0.19 4.27-0.05Q3.55 0.10 2.71 0.10L2.71 0.10Q1.85 0.10 1.31-0.02Q0.77-0.13 0.46-0.26L0.46-0.26Q0.10-0.42-0.08-0.62L-0.08-0.62L0.32-2.25L2.41-2.25Q2.40-2.14 2.39-1.95Q2.38-1.77 2.38-1.66L2.38-1.66Q2.38-1.52 2.41-1.37Q2.45-1.21 2.52-1.08Q2.60-0.95 2.74-0.87Q2.89-0.78 3.10-0.78L3.10-0.78Q3.34-0.78 3.52-0.89Q3.71-1.00 3.83-1.16Q3.96-1.32 4.02-1.51Q4.09-1.71 4.09-1.90L4.09-1.90Q4.09-2.16 3.96-2.34Q3.84-2.52 3.62-2.64Q3.41-2.77 3.13-2.86Q2.85-2.95 2.55-3.04L2.55-3.04Q2.27-3.12 1.95-3.24Q1.64-3.36 1.38-3.58Q1.12-3.79 0.94-4.12Q0.77-4.44 0.77-4.95L0.77-4.95Q0.77-5.72 1.16-6.23Q1.54-6.75 2.13-7.07Q2.72-7.39 3.42-7.53Q4.12-7.66 4.75-7.66L4.75-7.66Q5.58-7.66 6.18-7.47Q6.78-7.27 7.09-7.01L7.09-7.01L6.65-5.36ZM8.97 0L10.58-7.55L13.16-7.55L11.76-1.00L14.17-1.00L13.97 0L8.97 0ZM21.11-7.66L21.11-7.66Q22.13-7.66 22.77-7.40Q23.40-7.14 23.77-6.59L23.77-6.59Q24.01-6.23 24.14-5.76Q24.27-5.30 24.27-4.69L24.27-4.69Q24.27-4.17 24.18-3.65Q24.08-3.12 23.91-2.64Q23.74-2.16 23.49-1.74Q23.25-1.32 22.95-1.00L22.95-1.00Q22.39-0.39 21.66-0.15Q20.93 0.10 19.86 0.10L19.86 0.10Q18.83 0.10 18.20-0.12Q17.57-0.33 17.20-0.81L17.20-0.81Q16.94-1.14 16.79-1.65Q16.64-2.16 16.64-2.93L16.64-2.93Q16.64-4.25 17.11-5.29Q17.58-6.33 18.45-6.94L18.45-6.94Q18.97-7.31 19.61-7.49Q20.25-7.66 21.11-7.66ZM19.77-0.74L19.77-0.74Q20.04-0.74 20.28-0.98Q20.53-1.22 20.74-1.63Q20.94-2.04 21.12-2.57Q21.29-3.09 21.41-3.65Q21.53-4.21 21.59-4.76Q21.66-5.31 21.66-5.76L21.66-5.76Q21.66-6.38 21.53-6.61Q21.41-6.84 21.17-6.84L21.17-6.84Q20.90-6.84 20.65-6.61Q20.40-6.37 20.18-5.97Q19.96-5.57 19.79-5.06Q19.61-4.54 19.49-3.99Q19.36-3.45 19.30-2.91Q19.23-2.38 19.23-1.92L19.23-1.92Q19.23-1.25 19.38-0.99Q19.53-0.74 19.77-0.74ZM30.41-2.65L30.58-3.45L33.66-3.45L32.97 0L31.57 0L31.34-0.76L31.30-0.76Q30.99-0.40 30.57-0.15Q30.14 0.10 29.47 0.10L29.47 0.10Q28.94 0.10 28.46-0.08Q27.98-0.25 27.61-0.62Q27.23-1.00 27.01-1.60Q26.78-2.21 26.78-3.07L26.78-3.07Q26.78-3.99 27.07-4.82Q27.35-5.66 27.92-6.29Q28.49-6.93 29.35-7.30Q30.20-7.66 31.34-7.66L31.34-7.66Q32.22-7.66 32.88-7.46Q33.53-7.26 34.11-7.01L34.11-7.01L33.66-4.71L31.65-4.71Q31.67-4.84 31.69-5.01Q31.71-5.19 31.72-5.39Q31.74-5.58 31.75-5.77Q31.76-5.96 31.76-6.11L31.76-6.11Q31.76-6.20 31.75-6.33Q31.74-6.45 31.69-6.57Q31.64-6.69 31.55-6.77Q31.45-6.84 31.27-6.84L31.27-6.84Q30.96-6.84 30.71-6.59Q30.45-6.33 30.25-5.91Q30.05-5.49 29.90-4.95Q29.75-4.42 29.65-3.87Q29.55-3.32 29.50-2.79Q29.44-2.26 29.44-1.87L29.44-1.87Q29.44-1.75 29.46-1.57Q29.47-1.39 29.53-1.22Q29.60-1.05 29.72-0.92Q29.85-0.80 30.08-0.80L30.08-0.80Q30.48-0.80 30.85-1.22Q31.21-1.65 31.40-2.65L31.40-2.65L30.41-2.65ZM41.76-7.55L42.58 0L39.80 0L39.63-1.89L37.43-1.89L36.59 0L35.44 0L38.94-7.55L41.76-7.55ZM39.27-5.99L37.82-2.76L39.55-2.76L39.27-5.99ZM53.11-7.55L51.48 0L48.70 0L47.38-5.45L46.22 0L45.15 0L46.75-7.55L49.59-7.55L50.84-2.02L52.01-7.55L53.11-7.55Z" transform="translate(0.0831740455649119, 7.6638941984811675)"></path></g></g></g></g><defs v-gra="od"></defs></svg>