<svg width="1341" height="560" viewBox="0 0 1341 560" fill="none" xmlns="http://www.w3.org/2000/svg">
<g clip-path="url(#clip0_101_39)">
<path d="M88.2972 116.997C83.9951 116.997 79.6982 120.512 78.917 124.809C12.4951 438.179 12.1045 438.96 12.1045 439.351C12.1045 442.867 15.2295 445.21 18.7451 445.21H65.2399C69.542 445.21 73.4482 441.695 74.6201 437.398L141.042 123.247C141.042 119.731 138.698 116.997 134.792 116.997H88.2972Z" fill="white"/>
<path d="M76.2187 104.872C71.9271 104.872 67.6302 108.404 66.8698 112.695C0.380213 426.065 0 426.826 0 427.305C0 430.737 3.14583 433.122 6.67708 433.122H53.1354C57.4271 433.122 61.3385 429.591 62.5781 425.3L128.969 111.169C128.969 107.643 126.583 104.872 122.677 104.872H76.2187Z" stroke="#FF4040" stroke-width="7.32621"/>
<path d="M661.33 335.804C702.746 140.83 703.137 138.096 703.137 135.361C703.137 117.387 687.116 116.997 680.866 116.997H578.887C574.585 116.997 570.288 120.512 569.507 124.809C503.085 438.179 502.694 438.96 502.694 439.351C502.694 442.867 505.819 445.21 509.335 445.21H555.83C560.132 445.21 564.038 441.695 565.21 437.398L580.84 363.158H628.116C635.153 363.158 655.47 363.158 661.33 335.804ZM622.647 167.403H641.403L610.533 312.752H591.778L622.647 167.403Z" fill="white"/>
<path d="M749.242 124.809C685.945 420.986 685.945 424.111 685.945 426.455C685.945 445.21 702.357 445.21 708.607 445.21H816.841C821.138 445.21 825.044 441.695 826.216 437.398C891.862 124.809 892.253 124.419 892.253 123.637C892.253 120.122 889.513 117.778 885.997 117.778H839.503C835.206 117.778 830.904 121.294 829.732 125.591L772.685 394.804H753.93L811.367 123.247C811.367 119.731 809.023 116.997 805.117 116.997H758.622C754.32 116.997 750.023 120.512 749.242 124.809Z" fill="white"/>
<path d="M997.743 123.247C997.743 119.731 995.4 116.997 991.493 116.997H944.999C940.697 116.997 936.4 120.512 935.618 124.809L854.348 509.289C854.348 512.809 856.301 515.544 860.207 515.544H995.4C999.697 515.544 1004 512.023 1004.78 507.726L1013.37 469.044V467.481C1013.37 463.966 1011.03 461.231 1007.12 461.231H926.243L997.743 123.247Z" fill="white"/>
<path d="M1068.86 445.21C1075.89 445.21 1095.82 444.82 1101.68 417.861C1130.99 279.929 1131.38 277.195 1131.38 274.46C1131.38 256.486 1115.35 256.096 1109.1 256.096H1074.72L1093.87 167.403H1151.3C1155.6 167.403 1159.9 163.882 1160.68 159.585L1168.1 123.247C1168.1 119.731 1165.76 116.997 1161.85 116.997H1069.25C1062.21 116.997 1042.29 117.387 1036.43 143.955C1006.73 284.622 1006.34 287.356 1006.34 290.091C1006.34 308.065 1022.36 308.455 1028.62 308.455H1063L1045.41 390.117H991.886C987.584 390.117 983.678 393.632 982.506 397.934C974.303 438.179 973.912 438.96 973.912 439.351C973.912 442.867 977.037 445.21 980.553 445.21H1068.86Z" fill="white"/>
<path d="M1211.08 124.809C1144.66 438.179 1144.27 438.96 1144.27 439.351C1144.27 442.867 1147.39 445.21 1150.91 445.21H1265C1269.3 445.21 1273.21 441.695 1274.38 437.398L1281.42 402.622V401.059C1281.42 397.544 1279.07 394.804 1275.16 394.804H1215.77L1235.31 302.205H1275.56C1279.85 302.205 1284.15 298.684 1285.32 294.387C1293.13 255.315 1293.52 254.924 1293.52 254.143C1293.52 250.627 1290.79 248.283 1287.27 248.283H1247.03L1264.22 167.403H1323.61C1327.91 167.403 1332.21 163.882 1332.99 159.585L1340.81 123.247C1340.81 119.731 1338.46 116.997 1334.56 116.997H1220.46C1216.16 116.997 1211.86 120.512 1211.08 124.809Z" fill="white"/>
<path d="M649.229 323.706C690.631 128.721 691.011 126.05 691.011 123.284C691.011 105.258 674.985 104.872 668.787 104.872H566.808C562.516 104.872 558.224 108.404 557.459 112.695C490.969 426.065 490.589 426.826 490.589 427.305C490.589 430.737 493.74 433.122 497.266 433.122H543.724C548.016 433.122 551.927 429.591 553.167 425.299L568.719 351.086H616.032C623.089 351.086 643.412 351.086 649.229 323.706ZM610.594 155.336H629.292L598.479 300.622H579.688L610.594 155.336ZM737.193 112.695C673.854 408.893 673.854 412.039 673.854 414.331C673.854 433.122 690.261 433.122 696.558 433.122H804.735C809.026 433.122 812.938 429.591 814.084 425.299C879.808 112.695 880.188 112.315 880.188 111.55C880.188 108.023 877.422 105.732 873.896 105.732H827.438C823.146 105.732 818.849 109.169 817.61 113.461L760.568 382.753H741.87L799.297 111.169C799.297 107.643 796.912 104.872 793 104.872H746.542C742.25 104.872 737.959 108.404 737.193 112.695ZM985.672 111.169C985.672 107.643 983.287 104.872 979.375 104.872H932.922C928.625 104.872 924.334 108.404 923.573 112.695L842.297 497.227C842.297 500.758 844.203 503.43 848.115 503.43H983.287C987.578 503.43 991.875 499.898 992.735 495.607L1001.32 456.971V455.352C1001.32 451.914 998.933 449.148 995.021 449.148H914.13L985.672 111.169ZM1056.72 433.122C1063.78 433.122 1083.72 432.742 1089.64 405.747C1118.92 267.805 1119.3 265.133 1119.3 262.367C1119.3 244.435 1103.28 244.055 1096.98 244.055H1062.64L1081.81 155.336H1139.24C1143.53 155.336 1147.82 151.81 1148.59 147.513L1156.03 111.169C1156.03 107.643 1153.64 104.872 1149.73 104.872H1057.2C1050.14 104.872 1030.2 105.258 1024.39 131.872C994.62 272.576 994.24 275.247 994.24 278.013C994.24 295.945 1010.27 296.331 1016.56 296.331H1050.91L1033.35 377.987H979.839C975.542 377.987 971.63 381.513 970.391 385.81C962.188 426.065 961.808 426.826 961.808 427.305C961.808 430.737 964.953 433.122 968.485 433.122H1056.72ZM1199.04 112.695C1132.55 426.065 1132.16 426.826 1132.16 427.305C1132.16 430.737 1135.31 433.122 1138.84 433.122H1252.93C1257.22 433.122 1261.14 429.591 1262.28 425.299L1269.34 390.576V388.956C1269.34 385.424 1266.95 382.753 1263.04 382.753H1203.71L1223.27 290.128H1263.43C1267.72 290.128 1272.1 286.596 1273.25 282.305C1281.07 243.195 1281.45 242.815 1281.45 242.05C1281.45 238.518 1278.69 236.232 1275.16 236.232H1234.9L1252.17 155.336H1311.51C1315.8 155.336 1320.09 151.81 1320.95 147.513L1328.67 111.169C1328.67 107.643 1326.39 104.872 1322.47 104.872H1208.39C1204.09 104.872 1199.8 108.404 1199.04 112.695Z" stroke="#FF4040" stroke-width="7.32621"/>
<g filter="url(#filter0_d_101_39)">
<path d="M233.917 24.9268C233.917 24.9268 233.928 24.9268 233.934 24.9268C247.404 26.2796 257.35 37.2362 257.586 50.9861L262.285 331.068L310.844 150.088C314.161 137.714 325.275 129.668 337.876 130.517C350.43 131.325 360.45 140.829 362.144 153.537L385.761 330.775L426.32 264.409C431.618 255.724 441.144 250.952 451.158 251.953L490.354 255.958C500.72 256.989 499.618 266.527 498.604 277.062C497.585 287.586 497.04 295.118 486.679 294.081L454.591 290.784L400.947 378.56C395.038 388.228 384.125 392.919 373.189 390.559C362.23 388.176 354.173 379.357 352.67 368.072L332.359 215.599L277.483 420.12C274.016 433.039 261.962 441.208 248.924 439.545C235.84 437.882 226.183 426.948 225.952 413.562L221.564 152.084L137.456 544.912C135.239 555.254 125.212 561.807 115.025 559.558C104.849 557.303 98.3934 547.102 100.599 536.766L205.727 45.7743C208.607 32.3464 220.458 23.58 233.917 24.9268Z" fill="white"/>
</g>
<g filter="url(#filter1_d_101_39)">
<path d="M218.926 12.8863L219.1 12.9038C234.379 14.4382 245.636 26.9046 245.902 42.3855L245.902 42.3869L250.183 297.537L292.279 140.641C292.279 140.641 292.28 140.64 292.28 140.64C296.02 126.688 308.62 117.523 322.921 118.484C337.185 119.404 348.522 130.219 350.429 144.534L372.742 311.981L408.149 254.045L218.926 12.8863ZM218.926 12.8863H218.903M218.926 12.8863H218.903M218.903 12.8863C203.702 11.4533 190.353 21.4308 187.121 36.4999L187.121 36.501L81.993 527.493L81.9925 527.495C79.3953 539.666 86.9869 551.754 99.0843 554.435L99.087 554.435C111.218 557.113 123.081 549.297 125.694 537.105L125.695 537.104L203.394 174.207L207.269 405.08L207.269 405.081C207.529 420.164 218.447 432.588 233.299 434.476C248.11 436.365 261.768 427.06 265.679 412.487L262.299 411.58L265.679 412.487L316.018 224.877L334.017 359.994C335.711 372.713 344.835 382.736 357.262 385.439L357.267 385.44C369.672 388.117 382.073 382.77 388.75 371.845L441.219 285.99L471.769 289.71L471.806 289.714L471.843 289.718C474.829 290.017 477.508 289.728 479.769 288.552C482.101 287.34 483.551 285.413 484.462 283.298C485.338 281.265 485.771 278.937 486.062 276.653C486.255 275.134 486.404 273.445 486.555 271.742C486.629 270.911 486.702 270.077 486.782 269.258L486.782 269.256C486.86 268.442 486.948 267.605 487.036 266.763C487.218 265.014 487.403 263.243 487.514 261.607C487.68 259.158 487.716 256.635 487.292 254.321C486.86 251.966 485.909 249.602 483.929 247.757C481.956 245.918 479.338 244.946 476.245 244.633L436.384 239.937L436.354 239.933L436.323 239.93C424.954 238.793 414.141 244.226 408.15 254.043L218.903 12.8863Z" stroke="#FF4040" stroke-width="7" shape-rendering="crispEdges"/>
</g>
</g>
<defs>
<filter id="filter0_d_101_39" x="96.167" y="24.7906" width="407.062" height="543.209" filterUnits="userSpaceOnUse" color-interpolation-filters="sRGB">
<feFlood flood-opacity="0" result="BackgroundImageFix"/>
<feColorMatrix in="SourceAlpha" type="matrix" values="0 0 0 0 0 0 0 0 0 0 0 0 0 0 0 0 0 0 127 0" result="hardAlpha"/>
<feOffset dy="4"/>
<feGaussianBlur stdDeviation="2"/>
<feComposite in2="hardAlpha" operator="out"/>
<feColorMatrix type="matrix" values="0 0 0 0 0 0 0 0 0 0 0 0 0 0 0 0 0 0 0.25 0"/>
<feBlend mode="normal" in2="BackgroundImageFix" result="effect1_dropShadow_101_39"/>
<feBlend mode="normal" in="SourceGraphic" in2="effect1_dropShadow_101_39" result="shape"/>
</filter>
<filter id="filter1_d_101_39" x="73.9834" y="9.24927" width="421.146" height="557.214" filterUnits="userSpaceOnUse" color-interpolation-filters="sRGB">
<feFlood flood-opacity="0" result="BackgroundImageFix"/>
<feColorMatrix in="SourceAlpha" type="matrix" values="0 0 0 0 0 0 0 0 0 0 0 0 0 0 0 0 0 0 127 0" result="hardAlpha"/>
<feOffset dy="4"/>
<feGaussianBlur stdDeviation="2"/>
<feComposite in2="hardAlpha" operator="out"/>
<feColorMatrix type="matrix" values="0 0 0 0 0 0 0 0 0 0 0 0 0 0 0 0 0 0 0.25 0"/>
<feBlend mode="normal" in2="BackgroundImageFix" result="effect1_dropShadow_101_39"/>
<feBlend mode="normal" in="SourceGraphic" in2="effect1_dropShadow_101_39" result="shape"/>
</filter>
<clipPath id="clip0_101_39">
<rect width="1341" height="560" fill="white"/>
</clipPath>
</defs>
</svg>
