<svg version="1.1" id="Layer_1" xmlns="http://www.w3.org/2000/svg" xmlns:xlink="http://www.w3.org/1999/xlink" x="0px" y="0px"
	 width="100%" viewBox="0 0 769 325" enable-background="new 0 0 769 325" xml:space="preserve">
<!-- <path fill="#000000" opacity="1.000000" stroke="none" 
	d="
M525.000000,326.000000 
	C350.039856,326.000000 175.579727,326.000000 1.059801,326.000000 
	C1.059801,217.731308 1.059801,109.462585 1.059801,1.096926 
	C257.210114,1.096926 513.420288,1.096926 769.815186,1.096926 
	C769.815186,109.333076 769.815186,217.666519 769.815186,326.000000 
	C688.462585,326.000000 606.981323,326.000000 525.000000,326.000000 
M525.965942,150.925781 
	C542.962952,150.877441 559.959961,150.829117 577.712158,150.765198 
	C577.847778,142.071320 577.992554,133.377548 578.072388,124.683151 
	C578.074707,124.435310 577.385803,124.181122 576.131714,123.665520 
	C573.663086,123.665520 571.194458,123.665520 568.217529,123.665520 
	C568.217529,129.571716 568.217529,135.131332 568.217529,141.385971 
	C553.498413,141.385971 539.285461,141.385971 524.337280,141.215790 
	C520.932312,141.694000 519.515198,143.801346 519.939148,147.041840 
	C520.313965,149.906616 521.976013,151.402679 525.965942,150.925781 
M508.047974,177.959000 
	C508.083130,185.960648 508.118286,193.962311 508.032501,202.539978 
	C508.363708,202.651962 508.694916,202.763931 509.922607,202.994766 
	C512.481689,202.994766 515.040771,202.994766 517.938477,202.994766 
	C517.938477,196.851486 517.938477,191.455246 517.938477,185.457886 
	C532.161560,185.457886 546.015320,185.457886 560.582214,185.685318 
	C563.900513,185.198456 565.884338,183.091690 564.877319,180.014343 
	C564.330811,178.344254 561.677979,177.363373 559.055664,175.895355 
	C542.375000,175.946121 525.694397,175.996902 508.416687,175.970901 
	C508.330750,176.324448 508.244843,176.677994 508.047974,177.959000 
M152.469406,175.933289 
	C148.331558,186.454575 144.193710,196.975845 140.053574,207.502960 
	C141.066071,207.886200 141.371155,208.100540 141.678009,208.103134 
	C147.169052,208.149399 152.660294,208.188004 158.151520,208.192398 
	C169.483749,208.201447 169.434937,208.176636 173.021515,197.315033 
	C174.213181,193.706207 175.726212,190.203537 177.092331,186.652344 
	C177.657806,186.676605 178.223267,186.700882 178.788742,186.725159 
	C186.935898,206.924927 195.083069,227.124695 203.230225,247.324463 
	C203.796753,247.236633 204.363266,247.148819 204.929794,247.060989 
	C208.535156,237.840454 211.942627,228.535248 215.835785,219.437881 
	C217.580139,215.361725 217.932526,211.750519 216.035919,207.695297 
	C214.432724,204.267395 213.444061,200.558044 212.023743,197.037704 
	C201.294647,170.445374 190.531250,143.866882 179.751709,117.294975 
	C179.308853,116.203323 178.598572,115.220154 177.732361,113.691315 
	C169.201233,134.687073 160.970551,154.943420 152.469406,175.933289 
M275.043060,173.500153 
	C275.043060,184.770569 275.043060,196.041000 275.043060,207.364044 
	C282.972870,207.364044 290.350311,207.364044 298.160706,207.364044 
	C298.160706,199.058029 298.160706,191.139679 298.160706,182.952576 
	C305.244415,182.952576 311.889435,183.056549 318.529663,182.922073 
	C324.646881,182.798203 330.119568,180.942932 335.170227,177.211731 
	C345.267029,169.752670 347.941803,159.554428 347.283508,147.742615 
	C346.507202,133.813644 336.371063,121.266335 322.551544,119.990067 
	C309.950653,118.826355 297.157623,119.743492 284.034515,119.743492 
	C288.676208,126.614426 293.101929,133.403107 297.844238,139.962936 
	C298.681396,141.120911 300.818329,141.804306 302.393799,141.877991 
	C307.546722,142.119019 312.725800,141.798553 317.878937,142.037247 
	C322.287750,142.241486 324.526794,145.140076 324.769440,150.221329 
	C325.040192,155.891251 323.183960,159.778992 319.264893,159.994522 
	C312.204437,160.382767 305.107269,160.104233 297.616150,160.104233 
	C297.616150,157.142548 297.616150,154.733948 297.616150,152.351654 
	C289.931549,152.351654 282.676361,152.351654 275.043060,152.351654 
	C275.043060,159.243378 275.043060,165.871811 275.043060,173.500153 
M367.542603,123.309807 
	C365.878021,123.309097 364.202911,123.427551 362.551056,123.282211 
	C359.371460,123.002449 358.127197,124.193108 358.151581,127.528770 
	C358.279449,145.006348 357.996124,162.489044 358.290924,179.962631 
	C358.538879,194.659439 370.069458,207.126770 384.467438,207.693497 
	C398.919220,208.262344 413.414551,207.728424 427.890594,207.645111 
	C428.099396,207.643906 428.305756,207.219025 428.761139,206.720566 
	C424.498047,200.300995 420.276428,193.756531 415.790100,187.398849 
	C415.148102,186.489059 413.231750,186.135162 411.896149,186.114868 
	C404.240723,185.998550 396.582550,186.070496 388.925323,186.059464 
	C381.438263,186.048691 380.031952,184.612259 380.025482,176.918762 
	C380.013702,162.935989 380.024811,148.953186 380.026245,134.970398 
	C380.027466,123.308952 380.027435,123.308952 367.542603,123.309807 
M102.459641,128.508087 
	C102.459641,154.784897 102.459641,181.061722 102.459641,207.427994 
	C110.739388,207.427994 118.452110,207.427994 126.302109,207.427994 
	C126.302109,176.170975 126.302109,145.257462 126.302109,114.303123 
	C118.277275,114.303123 110.543098,114.303123 102.459412,114.303123 
	C102.459412,118.895996 102.459412,123.204720 102.459641,128.508087 
M262.177002,208.800690 
	C264.045135,208.594467 265.913269,208.388245 268.388397,208.115021 
	C255.592377,176.310455 243.102676,145.267273 230.487076,113.911133 
	C229.614594,114.636597 229.084839,114.860435 228.928467,115.238647 
	C224.545761,125.839378 220.146622,136.434265 215.924057,147.098938 
	C215.442245,148.315842 215.605347,150.089920 216.109161,151.349823 
	C223.329453,169.405396 230.575668,187.452301 238.109451,205.377808 
	C238.773346,206.957443 241.432632,208.510818 243.264786,208.637756 
	C249.233353,209.051270 255.248169,208.797302 262.177002,208.800690 
M633.500000,172.925339 
	C639.917847,172.925339 646.335693,172.925339 652.640991,172.925339 
	C652.640991,167.159576 652.640991,162.089951 652.640991,156.959457 
	C634.083679,156.959457 615.824341,156.959457 597.627686,156.959457 
	C597.627686,173.241058 597.627686,189.270721 597.627686,205.289612 
	C618.063354,205.289612 638.117920,205.289612 658.288452,205.289612 
	C658.288452,200.031937 658.288452,195.113846 658.288452,189.773361 
	C643.782593,189.773361 629.552612,189.773361 615.298523,189.773361 
	C615.298523,183.944901 615.298523,178.547272 615.298523,172.925339 
	C621.223145,172.925339 626.862000,172.925339 633.500000,172.925339 
M515.080322,165.601456 
	C519.550293,166.659653 523.989380,168.439011 528.496338,168.631714 
	C539.138855,169.086731 549.814819,168.690216 560.474915,168.826172 
	C567.430237,168.914902 572.769226,174.151947 572.877930,180.610596 
	C572.988831,187.194992 567.429504,192.874405 560.407166,193.007492 
	C552.247131,193.162125 544.081970,193.050430 535.919067,193.053543 
	C532.823181,193.054733 529.727295,193.053741 526.560974,193.053741 
	C526.560974,196.737152 526.560974,199.641541 526.560974,202.848450 
	C539.359070,202.848450 551.814026,202.855774 564.268860,202.827499 
	C564.913452,202.826035 565.560425,202.531784 566.201050,202.354889 
	C576.787292,199.431641 584.045593,189.038773 582.768616,178.636978 
	C581.322510,166.856796 572.220276,158.266190 560.693298,158.108994 
	C549.200684,157.952286 537.703186,158.155975 526.210510,158.001480 
	C518.650391,157.899841 513.784546,152.916397 513.891357,145.829758 
	C514.001160,138.545319 518.726440,133.911606 526.289551,133.857788 
	C535.951294,133.789017 545.614014,133.848999 555.276184,133.823608 
	C557.041382,133.818970 558.806274,133.671280 560.654297,133.585785 
	C560.760925,131.883392 560.723755,130.713531 560.923706,129.585724 
	C561.835876,124.440392 559.694092,122.943802 554.626038,123.202431 
	C546.484253,123.617912 538.298462,123.106003 530.145935,123.397568 
	C525.884216,123.549988 521.259644,123.689461 517.476624,125.364929 
	C499.602997,133.280991 498.183929,153.752548 515.080322,165.601456 
M443.122528,176.499969 
	C443.125214,184.499786 443.290619,192.504349 443.057587,200.497284 
	C442.951202,204.145844 443.970123,205.566223 447.806427,205.394760 
	C454.127045,205.112244 460.469360,205.314835 466.802551,205.314438 
	C477.764069,205.313766 488.725616,205.314240 500.425751,205.314240 
	C500.425751,201.758255 500.201416,198.629883 500.480591,195.547104 
	C500.858643,191.372391 499.266846,190.078506 495.097137,190.171417 
	C483.633148,190.426880 472.159760,190.259613 460.240204,190.259613 
	C460.240204,188.190781 460.240204,186.564331 460.240173,184.937866 
	C460.239777,167.604950 460.224274,150.272034 460.244263,132.939133 
	C460.257843,121.147972 460.277557,121.315643 448.463562,121.137367 
	C444.316284,121.074791 442.984283,122.304779 443.038086,126.502174 
	C443.247559,142.832428 443.122894,159.166977 443.122528,176.499969 
M405.592468,148.499786 
	C405.592468,157.576141 405.592468,166.652496 405.592468,175.670517 
	C413.255737,175.670517 420.280914,175.670517 427.089966,175.670517 
	C427.089966,158.143600 427.089966,141.061996 427.089966,123.901375 
	C419.859009,123.901375 412.946625,123.901375 405.592407,123.901375 
	C405.592407,131.931458 405.592407,139.715622 405.592468,148.499786 
M605.552063,124.718330 
	C602.939880,124.718330 600.327698,124.718330 597.567017,124.718330 
	C597.567017,130.148239 597.567017,135.044128 597.567017,140.092529 
	C617.786194,140.092529 637.697998,140.092529 657.790894,140.092529 
	C657.790894,134.893387 657.790894,129.865005 657.790894,124.718773 
	C640.473083,124.718773 623.507019,124.718773 605.552063,124.718330 
z"/> -->
<path fill="#FCFCFC" opacity="1.000000" stroke="none" 
	d="
M152.604630,175.566528 
	C160.970551,154.943420 169.201233,134.687073 177.732361,113.691315 
	C178.598572,115.220154 179.308853,116.203323 179.751709,117.294975 
	C190.531250,143.866882 201.294647,170.445374 212.023743,197.037704 
	C213.444061,200.558044 214.432724,204.267395 216.035919,207.695297 
	C217.932526,211.750519 217.580139,215.361725 215.835785,219.437881 
	C211.942627,228.535248 208.535156,237.840454 204.929794,247.060989 
	C204.363266,247.148819 203.796753,247.236633 203.230225,247.324463 
	C195.083069,227.124695 186.935898,206.924927 178.788742,186.725159 
	C178.223267,186.700882 177.657806,186.676605 177.092331,186.652344 
	C175.726212,190.203537 174.213181,193.706207 173.021515,197.315033 
	C169.434937,208.176636 169.483749,208.201447 158.151520,208.192398 
	C152.660294,208.188004 147.169052,208.149399 141.678009,208.103134 
	C141.371155,208.100540 141.066071,207.886200 140.053574,207.502960 
	C144.193710,196.975845 148.331558,186.454575 152.604630,175.566528 
z"/>
<path fill="#FBFBFB" opacity="1.000000" stroke="none" 
	d="
M275.043060,173.000198 
	C275.043060,165.871811 275.043060,159.243378 275.043060,152.351654 
	C282.676361,152.351654 289.931549,152.351654 297.616150,152.351654 
	C297.616150,154.733948 297.616150,157.142548 297.616150,160.104233 
	C305.107269,160.104233 312.204437,160.382767 319.264893,159.994522 
	C323.183960,159.778992 325.040192,155.891251 324.769440,150.221329 
	C324.526794,145.140076 322.287750,142.241486 317.878937,142.037247 
	C312.725800,141.798553 307.546722,142.119019 302.393799,141.877991 
	C300.818329,141.804306 298.681396,141.120911 297.844238,139.962936 
	C293.101929,133.403107 288.676208,126.614426 284.034515,119.743492 
	C297.157623,119.743492 309.950653,118.826355 322.551544,119.990067 
	C336.371063,121.266335 346.507202,133.813644 347.283508,147.742615 
	C347.941803,159.554428 345.267029,169.752670 335.170227,177.211731 
	C330.119568,180.942932 324.646881,182.798203 318.529663,182.922073 
	C311.889435,183.056549 305.244415,182.952576 298.160706,182.952576 
	C298.160706,191.139679 298.160706,199.058029 298.160706,207.364044 
	C290.350311,207.364044 282.972870,207.364044 275.043060,207.364044 
	C275.043060,196.041000 275.043060,184.770569 275.043060,173.000198 
z"/>
<path fill="#76ABAE" opacity="1.000000" stroke="none" 
	d="
M368.023346,123.309944 
	C380.027435,123.308952 380.027466,123.308952 380.026245,134.970398 
	C380.024811,148.953186 380.013702,162.935989 380.025482,176.918762 
	C380.031952,184.612259 381.438263,186.048691 388.925323,186.059464 
	C396.582550,186.070496 404.240723,185.998550 411.896149,186.114868 
	C413.231750,186.135162 415.148102,186.489059 415.790100,187.398849 
	C420.276428,193.756531 424.498047,200.300995 428.761139,206.720566 
	C428.305756,207.219025 428.099396,207.643906 427.890594,207.645111 
	C413.414551,207.728424 398.919220,208.262344 384.467438,207.693497 
	C370.069458,207.126770 358.538879,194.659439 358.290924,179.962631 
	C357.996124,162.489044 358.279449,145.006348 358.151581,127.528770 
	C358.127197,124.193108 359.371460,123.002449 362.551056,123.282211 
	C364.202911,123.427551 365.878021,123.309097 368.023346,123.309944 
z"/>
<path fill="#F3F3F3" opacity="1.000000" stroke="none" 
	d="
M102.459526,128.010757 
	C102.459412,123.204720 102.459412,118.895996 102.459412,114.303123 
	C110.543098,114.303123 118.277275,114.303123 126.302109,114.303123 
	C126.302109,145.257462 126.302109,176.170975 126.302109,207.427994 
	C118.452110,207.427994 110.739388,207.427994 102.459641,207.427994 
	C102.459641,181.061722 102.459641,154.784897 102.459526,128.010757 
z"/>
<path fill="#76ABAE" opacity="1.000000" stroke="none" 
	d="
M261.711090,208.800430 
	C255.248169,208.797302 249.233353,209.051270 243.264786,208.637756 
	C241.432632,208.510818 238.773346,206.957443 238.109451,205.377808 
	C230.575668,187.452301 223.329453,169.405396 216.109161,151.349823 
	C215.605347,150.089920 215.442245,148.315842 215.924057,147.098938 
	C220.146622,136.434265 224.545761,125.839378 228.928467,115.238647 
	C229.084839,114.860435 229.614594,114.636597 230.487076,113.911133 
	C243.102676,145.267273 255.592377,176.310455 268.388397,208.115021 
	C265.913269,208.388245 264.045135,208.594467 261.711090,208.800430 
z"/>
<path fill="#F8F8F8" opacity="1.000000" stroke="none" 
	d="
M633.000427,172.925339 
	C626.862000,172.925339 621.223145,172.925339 615.298523,172.925339 
	C615.298523,178.547272 615.298523,183.944901 615.298523,189.773361 
	C629.552612,189.773361 643.782593,189.773361 658.288452,189.773361 
	C658.288452,195.113846 658.288452,200.031937 658.288452,205.289612 
	C638.117920,205.289612 618.063354,205.289612 597.627686,205.289612 
	C597.627686,189.270721 597.627686,173.241058 597.627686,156.959457 
	C615.824341,156.959457 634.083679,156.959457 652.640991,156.959457 
	C652.640991,162.089951 652.640991,167.159576 652.640991,172.925339 
	C646.335693,172.925339 639.917847,172.925339 633.000427,172.925339 
z"/>
<path fill="#76ABAE" opacity="1.000000" stroke="none" 
	d="
M514.763306,165.407471 
	C498.183929,153.752548 499.602997,133.280991 517.476624,125.364929 
	C521.259644,123.689461 525.884216,123.549988 530.145935,123.397568 
	C538.298462,123.106003 546.484253,123.617912 554.626038,123.202431 
	C559.694092,122.943802 561.835876,124.440392 560.923706,129.585724 
	C560.723755,130.713531 560.760925,131.883392 560.654297,133.585785 
	C558.806274,133.671280 557.041382,133.818970 555.276184,133.823608 
	C545.614014,133.848999 535.951294,133.789017 526.289551,133.857788 
	C518.726440,133.911606 514.001160,138.545319 513.891357,145.829758 
	C513.784546,152.916397 518.650391,157.899841 526.210510,158.001480 
	C537.703186,158.155975 549.200684,157.952286 560.693298,158.108994 
	C572.220276,158.266190 581.322510,166.856796 582.768616,178.636978 
	C584.045593,189.038773 576.787292,199.431641 566.201050,202.354889 
	C565.560425,202.531784 564.913452,202.826035 564.268860,202.827499 
	C551.814026,202.855774 539.359070,202.848450 526.560974,202.848450 
	C526.560974,199.641541 526.560974,196.737152 526.560974,193.053741 
	C529.727295,193.053741 532.823181,193.054733 535.919067,193.053543 
	C544.081970,193.050430 552.247131,193.162125 560.407166,193.007492 
	C567.429504,192.874405 572.988831,187.194992 572.877930,180.610596 
	C572.769226,174.151947 567.430237,168.914902 560.474915,168.826172 
	C549.814819,168.690216 539.138855,169.086731 528.496338,168.631714 
	C523.989380,168.439011 519.550293,166.659653 514.763306,165.407471 
z"/>
<path fill="#FAFAFA" opacity="1.000000" stroke="none" 
	d="
M443.122559,175.999954 
	C443.122894,159.166977 443.247559,142.832428 443.038086,126.502174 
	C442.984283,122.304779 444.316284,121.074791 448.463562,121.137367 
	C460.277557,121.315643 460.257843,121.147972 460.244263,132.939133 
	C460.224274,150.272034 460.239777,167.604950 460.240173,184.937866 
	C460.240204,186.564331 460.240204,188.190781 460.240204,190.259613 
	C472.159760,190.259613 483.633148,190.426880 495.097137,190.171417 
	C499.266846,190.078506 500.858643,191.372391 500.480591,195.547104 
	C500.201416,198.629883 500.425751,201.758255 500.425751,205.314240 
	C488.725616,205.314240 477.764069,205.313766 466.802551,205.314438 
	C460.469360,205.314835 454.127045,205.112244 447.806427,205.394760 
	C443.970123,205.566223 442.951202,204.145844 443.057587,200.497284 
	C443.290619,192.504349 443.125214,184.499786 443.122559,175.999954 
z"/>
<path fill="#FDFDFD" opacity="1.000000" stroke="none" 
	d="
M405.592438,147.999786 
	C405.592407,139.715622 405.592407,131.931458 405.592407,123.901375 
	C412.946625,123.901375 419.859009,123.901375 427.089966,123.901375 
	C427.089966,141.061996 427.089966,158.143600 427.089966,175.670517 
	C420.280914,175.670517 413.255737,175.670517 405.592468,175.670517 
	C405.592468,166.652496 405.592468,157.576141 405.592438,147.999786 
z"/>
<path fill="#FDFDFD" opacity="1.000000" stroke="none" 
	d="
M606.046509,124.718552 
	C623.507019,124.718773 640.473083,124.718773 657.790894,124.718773 
	C657.790894,129.865005 657.790894,134.893387 657.790894,140.092529 
	C637.697998,140.092529 617.786194,140.092529 597.567017,140.092529 
	C597.567017,135.044128 597.567017,130.148239 597.567017,124.718330 
	C600.327698,124.718330 602.939880,124.718330 606.046509,124.718552 
z"/>
<path fill="#FBFCFC" opacity="1.000000" stroke="none" 
	d="
M509.013733,176.047684 
	C525.694397,175.996902 542.375000,175.946121 559.550598,176.417542 
	C559.986694,179.779129 559.927856,182.618500 559.869019,185.457886 
	C546.015320,185.457886 532.161560,185.457886 517.938477,185.457886 
	C517.938477,191.455246 517.938477,196.851486 517.938477,202.994766 
	C515.040771,202.994766 512.481689,202.994766 509.354736,202.759338 
	C508.617249,202.290298 508.406128,202.103638 508.153473,201.963959 
	C508.118286,193.962311 508.083130,185.960648 508.287476,177.370392 
	C508.758820,176.583221 508.921082,176.338531 509.013733,176.047684 
z"/>
<path fill="#FDFDFD" opacity="1.000000" stroke="none" 
	d="
M576.956970,150.780792 
	C559.959961,150.829117 542.962952,150.877441 525.511475,150.409988 
	C525.062134,147.058121 525.067322,144.222046 525.072510,141.385971 
	C539.285461,141.385971 553.498413,141.385971 568.217529,141.385971 
	C568.217529,135.131332 568.217529,129.571716 568.217529,123.665520 
	C571.194458,123.665520 573.663086,123.665520 576.566895,124.270920 
	C576.987000,133.511139 576.971985,142.145966 576.956970,150.780792 
z"/>
<path fill="#D3D8D6" opacity="1.000000" stroke="none" 
	d="
M577.334595,150.772995 
	C576.971985,142.145966 576.987000,133.511139 577.010620,124.403107 
	C577.385803,124.181122 578.074707,124.435310 578.072388,124.683151 
	C577.992554,133.377548 577.847778,142.071320 577.334595,150.772995 
z"/>
<path fill="#D3D8D6" opacity="1.000000" stroke="none" 
	d="
M524.704895,141.300873 
	C525.067322,144.222046 525.062134,147.058121 525.053223,150.321777 
	C521.976013,151.402679 520.313965,149.906616 519.939148,147.041840 
	C519.515198,143.801346 520.932312,141.694000 524.704895,141.300873 
z"/>
<path fill="#BFC3C2" opacity="1.000000" stroke="none" 
	d="
M560.225586,185.571594 
	C559.927856,182.618500 559.986694,179.779129 560.010376,176.505676 
	C561.677979,177.363373 564.330811,178.344254 564.877319,180.014343 
	C565.884338,183.091690 563.900513,185.198456 560.225586,185.571594 
z"/>
<path fill="#BFC3C2" opacity="1.000000" stroke="none" 
	d="
M508.715210,176.009293 
	C508.921082,176.338531 508.758820,176.583221 508.342957,176.906662 
	C508.244843,176.677994 508.330750,176.324448 508.715210,176.009293 
z"/>
<path fill="#BFC3C2" opacity="1.000000" stroke="none" 
	d="
M508.092987,202.251968 
	C508.406128,202.103638 508.617249,202.290298 508.906494,202.699921 
	C508.694916,202.763931 508.363708,202.651962 508.092987,202.251968 
z"/>
</svg>